<svg xmlns="http://www.w3.org/2000/svg" xml:space="preserve" id="Livello_1" x="0" y="0" version="1.1" viewBox="0 0 474.2 98.3"><style>.st2{fill:#ffc629}</style><path d="M197.5 60.9c7.3 0 12.6-5.5 12.6-13.5 0-7.7-5.1-13.2-12.5-13.2-7.1 0-12.5 5.5-12.5 13.2 0 8 5.1 13.5 12.4 13.5m254.7-20.8c-.9-2.8-1.6-5.3-2.2-7.7h-.1c-.6 2.5-1.3 5.1-2.1 7.6l-4.1 12.2h12.7z" style="fill:none"/><path d="M98.7 62.4c-3.5 0-7.5-2-9.6-4.7l-7 7.1c3.9 4.1 10.3 6.4 16.6 6.4 8.8 0 17-4.6 17-14.8 0-8.8-7.8-11.4-13.8-13.3-4.2-1.3-6.8-2.3-6.8-5.2 0-3.5 3.4-4.4 6.2-4.4s6.1 1.5 7.9 3.8l6.8-7.2c-3.9-3.6-9.5-5.5-14.5-5.5-8.3 0-17.2 4.1-17.2 13.9 0 8 5.7 10.9 11.3 12.7 5.8 1.9 9.2 2.9 9.2 6.3.1 3.6-2.8 4.9-6.1 4.9m62.6-1.5h-20.7v-9.2h18.5v-8.6h-18.5v-8.3h19.5v-9.1h-29.8v44.4h31zm35.9 9.2h27v-8.5l-9.3.2v-.2c3.2-2.4 6.6-7.6 6.6-14.4 0-13.3-10.1-22.6-23.9-22.6-13.7 0-24.1 9.3-24.1 22.8 0 14.5 9.6 22.7 23.7 22.7m.4-35.9c7.4 0 12.5 5.5 12.5 13.2 0 8-5.3 13.5-12.6 13.5S185 55.4 185 47.4c.1-7.7 5.4-13.2 12.6-13.2" style="fill:#fff"/><path d="M270.6 27.6h-5.5v25c0 9.3-4 13.5-10.3 13.5-5.6 0-9.8-4-9.8-13.5v-25h-5.5v24.9c0 13.1 6.5 18 15.1 18 9.1 0 16-5.3 16-18.3zm40.7 37.6H293V50h16.4v-4.5H293V32.2h17.4v-4.6h-22.8v42.2h23.7zm27.4-16.8 13.4 21.4h5.5V27.6h-5.1v17.7c0 6.6.1 11.7.6 17.3l-.1.1c-2-4.3-4.4-8.8-7.6-13.7l-13.5-21.3H326v42.2h5.1v-18c0-7-.1-12.1-.4-17.4l.2-.1c2 4.5 4.8 9.3 7.8 14m49.4 21.4V32.2H401v-4.6h-31.2v4.6h12.8v37.6zm25.1-42.2h5.4v42.2h-5.4zm29.3 28.9h15l4.5 13.3h5.8l-14.4-42.2h-6.6l-14.3 42.2h5.6zm5.3-16.5c.8-2.6 1.5-5.1 2.1-7.6h.1c.6 2.4 1.3 4.9 2.2 7.7l4.1 12.1h-12.7zM62.1 4.2v17h-8.3c-16.8 0-30.4 13.7-30.4 30.4v8.3h-17v-8.3c0-26.1 21.3-47.4 47.4-47.4zm2-2H53.8C26.6 2.2 4.4 24.4 4.4 51.6v10.3h21V51.6c0-15.7 12.7-28.4 28.4-28.4h10.3z" class="st2"/><path d="M62.1 38.5v8.3c0 26.1-21.3 47.4-47.4 47.4H6.4v-17h8.3c16.8 0 30.4-13.7 30.4-30.4v-8.3zm2-2h-21v10.3c0 15.7-12.7 28.4-28.4 28.4H4.4v21h10.3c27.2 0 49.4-22.2 49.4-49.4z" class="st2"/></svg>